PathFileType	4	(X/Y/Z)	/Users/itak/Documents/Research/Walk-IL/dataset/trc/00108_00007.trc
DataRate	CameraRate	NumFrames	NumMarkers	Units	OrigDataRate	OrigDataStartFrame	OrigNumFrames
100.000000	100.000000	4	53	mm	100.000000	455	520
Frame#	Time	RPSI			LPSI			L3			STRN			T10			C7			CLAV			RBAK			LBAK			LSHO			LUPA			LAEL			LAOL			LWTS			LWPS			LFRA			LIFD			LHPS			LHTS			RSHO			RUPA			RAEL			RAOL			RWTS			RWPS			RFRA			RIFD			RHTS			RHPS			RBHD			LFHD			RFHD			LBHD			LHIP			RHIP			RASI			LASI			LKNE			LTHI			LANK			LTIP			LTOE			LMT1			LMT5			LHEE			RKNE			RTHI			RANK			RTIP			RTOE			RMT1			RMT5			RHEE			
		X1	Y1	Z1	X2	Y2	Z2	X3	Y3	Z3	X4	Y4	Z4	X5	Y5	Z5	X6	Y6	Z6	X7	Y7	Z7	X8	Y8	Z8	X9	Y9	Z9	X10	Y10	Z10	X11	Y11	Z11	X12	Y12	Z12	X13	Y13	Z13	X14	Y14	Z14	X15	Y15	Z15	X16	Y16	Z16	X17	Y17	Z17	X18	Y18	Z18	X19	Y19	Z19	X20	Y20	Z20	X21	Y21	Z21	X22	Y22	Z22	X23	Y23	Z23	X24	Y24	Z24	X25	Y25	Z25	X26	Y26	Z26	X27	Y27	Z27	X28	Y28	Z28	X29	Y29	Z29	X30	Y30	Z30	X31	Y31	Z31	X32	Y32	Z32	X33	Y33	Z33	X34	Y34	Z34	X35	Y35	Z35	X36	Y36	Z36	X37	Y37	Z37	X38	Y38	Z38	X39	Y39	Z39	X40	Y40	Z40	X41	Y41	Z41	X42	Y42	Z42	X43	Y43	Z43	X44	Y44	Z44	X45	Y45	Z45	X46	Y46	Z46	X47	Y47	Z47	X48	Y48	Z48	X49	Y49	Z49	X50	Y50	Z50	X51	Y51	Z51	X52	Y52	Z52	X53	Y53	Z53	

456	4.55	-1463.77001953125	1128.78173828125	-301.849853515625	-1450.402587890625	1130.227905273438	-436.7489929199219	-1463.350219726562	1164.155395507812	-373.2603759765625	-1239.966186523438	1360.714965820312	-354.6142883300781	-1496.182983398438	1314.9833984375	-380.2994689941406	-1450.73681640625	1606.824340820312	-395.1561584472656	-1272.824462890625	1496.170654296875	-365.5173645019531	-1517.072509765625	1426.420043945312	-308.7252197265625	-1449.456176757812	1585.66455078125	-496.8419189453125	-1356.705444335938	1569.2880859375	-555.4503173828125	-1373.0224609375	1437.311401367188	-625.626708984375	-1361.626831054688	1218.644287109375	-647.0825805664062	-1428.687622070312	1205.487182617188	-591.5184326171875	-1259.181518554688	963.2230834960938	-606.3013916015625	-1340.263427734375	936.0829467773438	-632.6887817382812	-1345.176879882812	1103.032348632812	-651.9451904296875	-1244.337036132812	770.2493286132812	-585.1383056640625	-1309.131958007812	861.7947998046875	-634.8331909179688	-1241.874877929688	874.3677978515625	-617.9403686523438	-1414.55419921875	1591.8388671875	-209.2195739746094	-1440.712890625	1521.978515625	-145.2156982421875	-1468.713256835938	1229.59326171875	-116.7886428833008	-1463.529174804688	1225.667846679688	-213.9889526367188	-1331.959106445312	983.4779663085938	-102.1459655761719	-1411.16943359375	968.5924072265625	-82.04906463623047	-1450.636962890625	1156.02783203125	-96.20746612548828	-1312.59326171875	785.5270385742188	-105.5868301391602	-1306.927490234375	874.5367431640625	-87.46401977539062	-1378.976196289062	869.3084106445312	-67.40733337402344	-1411.418212890625	1782.23876953125	-313.7726135253906	-1240.934448242188	1837.981323242188	-442.1976928710938	-1246.174926757812	1848.1513671875	-312.7222900390625	-1413.075805664062	1776.0439453125	-449.3142395019531	-1349.924072265625	1040.031372070312	-535.4544677734375	-1348.813842773438	1032.603149414062	-169.0489044189453	-1262.85009765625	1104.375610351562	-218.6153411865234	-1245.994506835938	1101.690795898438	-483.889892578125	-1325.743774414062	534.8601684570312	-499.3053588867188	-1344.778564453125	681.7652587890625	-528.1182250976562	-1473.9873046875	39.43596649169922	-496.2986145019531	-1441.37060546875	292.0983581542969	-528.9579467773438	-1243.860961914062	38.07684707641602	-438.2037963867188	-1324.844116210938	42.14900588989258	-404.3540344238281	-1348.155395507812	32.56306838989258	-522.7930297851562	-1543.448364257812	43.21453475952148	-434.7287902832031	-1336.7333984375	538.1006469726562	-211.4637451171875	-1325.643188476562	817.3265380859375	-177.4674224853516	-1458.7373046875	29.67402267456055	-233.3284149169922	-1364.76416015625	402.6840209960938	-200.6493682861328	-1223.868041992188	47.65135955810547	-256.5789489746094	-1276.669067382812	30.70802116394043	-303.0070190429688	-1327.963256835938	44.88134002685547	-195.7621765136719	-1509.821899414062	31.81427383422852	-290.2132873535156	
457	4.56	-1464.206176757812	1128.555786132812	-303.0647277832031	-1451.35107421875	1129.703125	-438.0043640136719	-1464.014892578125	1163.74951171875	-374.5754089355469	-1241.034301757812	1360.414428710938	-356.7603759765625	-1497.350830078125	1314.239990234375	-381.7544250488281	-1452.566040039062	1606.177856445312	-396.4075317382812	-1274.290649414062	1495.799194335938	-367.3528442382812	-1518.221313476562	1425.494506835938	-310.0440368652344	-1451.478149414062	1585.109252929688	-498.1216125488281	-1358.7890625	1569.021606445312	-556.9624633789062	-1374.755859375	1437.024169921875	-627.259033203125	-1362.199096679688	1218.292846679688	-648.7042236328125	-1429.394165039062	1204.825561523438	-593.3712158203125	-1258.340087890625	963.6425170898438	-607.41650390625	-1339.099975585938	935.8984375	-634.0335693359375	-1345.035888671875	1102.77392578125	-653.42822265625	-1242.0751953125	770.7000122070312	-586.2890014648438	-1307.419799804688	861.840087890625	-636.1091918945312	-1240.30078125	874.8935546875	-619.0152587890625	-1415.84716796875	1590.965576171875	-210.5170745849609	-1441.577758789062	1520.91015625	-146.5551605224609	-1468.366088867188	1228.394897460938	-118.2391586303711	-1463.517211914062	1224.55712890625	-215.4590454101562	-1330.688232421875	982.773681640625	-104.1789093017578	-1409.818725585938	967.5770874023438	-83.82202911376953	-1449.977905273438	1154.887084960938	-97.78071594238281	-1310.771118164062	784.7802734375	-108.0943069458008	-1305.28076171875	873.8994750976562	-89.79647064208984	-1377.175170898438	868.3707275390625	-69.42189025878906	-1413.451782226562	1781.662841796875	-314.92529296875	-1243.0517578125	1837.724365234375	-443.39404296875	-1248.290283203125	1847.744140625	-313.8979187011719	-1415.159912109375	1775.619262695312	-450.4982299804688	-1351.49560546875	1039.153198242188	-536.7968139648438	-1348.746337890625	1032.754516601562	-170.6157531738281	-1262.901733398438	1104.286865234375	-220.7482604980469	-1247.1279296875	1101.056030273438	-486.1777648925781	-1329.950561523438	534.336669921875	-500.9168701171875	-1348.509887695312	681.214111328125	-529.726318359375	-1474.336669921875	38.61156845092773	-496.2499084472656	-1443.91748046875	291.22314453125	-529.474853515625	-1244.037841796875	38.18034744262695	-438.1444702148438	-1325.04638671875	41.98234939575195	-404.1382141113281	-1348.298706054688	32.58255386352539	-522.7042236328125	-1543.73193359375	41.66428375244141	-434.5351257324219	-1337.25048828125	538.2293090820312	-212.2413940429688	-1325.8076171875	817.4537963867188	-178.7457122802734	-1458.718505859375	29.70118522644043	-233.3707580566406	-1365.2421875	402.8937072753906	-201.1839904785156	-1223.829956054688	47.75300598144531	-256.3673095703125	-1276.613037109375	30.74818801879883	-302.9594421386719	-1327.95703125	44.92751312255859	-195.7856597900391	-1509.777709960938	31.83842658996582	-290.2463989257812	
458	4.57	-1464.635986328125	1128.35302734375	-304.2503051757812	-1452.297729492188	1129.214599609375	-439.2297973632812	-1464.689208984375	1163.352783203125	-375.8574829101562	-1242.087890625	1360.123779296875	-358.9441528320312	-1498.5185546875	1313.550903320312	-383.153076171875	-1454.377319335938	1605.568237304688	-397.628173828125	-1275.7294921875	1495.455078125	-369.2042541503906	-1519.359375	1424.58203125	-311.3644714355469	-1453.481811523438	1584.599487304688	-499.4017639160156	-1360.861572265625	1568.780883789062	-558.4746704101562	-1376.477661132812	1436.768798828125	-628.8895874023438	-1362.713256835938	1217.961059570312	-650.3351440429688	-1430.071044921875	1204.190307617188	-595.285888671875	-1257.5283203125	964.069580078125	-608.4442749023438	-1337.927856445312	935.7446899414062	-635.3629760742188	-1344.832397460938	1102.540649414062	-654.8994140625	-1239.90966796875	771.1788940429688	-587.3255615234375	-1305.682861328125	861.9152221679688	-637.3321533203125	-1238.737182617188	875.445068359375	-619.9806518554688	-1417.114501953125	1590.075073242188	-211.7946624755859	-1442.407958984375	1519.801635742188	-147.8998870849609	-1467.962524414062	1227.162963867188	-119.715576171875	-1463.417602539062	1223.409545898438	-216.9561920166016	-1329.4169921875	982.008544921875	-106.1902084350586	-1408.470092773438	966.5418090820312	-85.59542846679688	-1449.282470703125	1153.721313476562	-99.37868499755859	-1309.001586914062	783.9841918945312	-110.5111083984375	-1303.658447265625	873.2071533203125	-92.06361389160156	-1375.404296875	867.4170532226562	-71.39910125732422	-1415.435913085938	1781.109619140625	-316.0334777832031	-1245.131591796875	1837.504760742188	-444.542236328125	-1250.337646484375	1847.353393554688	-315.0254821777344	-1417.205078125	1775.2353515625	-451.6246948242188	-1353.060302734375	1038.347778320312	-538.126708984375	-1348.664672851562	1032.909057617188	-172.1937255859375	-1262.924438476562	1104.222290039062	-222.9049072265625	-1248.237915039062	1100.457763671875	-488.4916381835938	-1333.830078125	533.92138671875	-502.4977111816406	-1352.0546875	680.7633056640625	-531.3284301757812	-1474.673461914062	37.90191268920898	-496.2731323242188	-1446.258666992188	290.4793701171875	-530.0408325195312	-1244.23974609375	38.30833435058594	-438.0816650390625	-1325.289794921875	41.86214065551758	-403.9722595214844	-1348.444946289062	32.59343719482422	-522.6259155273438	-1543.994873046875	40.34792709350586	-434.4282836914062	-1337.847290039062	538.37548828125	-212.9799652099609	-1325.952270507812	817.6004638671875	-180.0046234130859	-1458.704345703125	29.72784233093262	-233.4035186767578	-1365.82080078125	403.1202697753906	-201.6951904296875	-1223.814208984375	47.88061904907227	-256.1212463378906	-1276.56103515625	30.795166015625	-302.8818359375	-1327.964599609375	44.97319793701172	-195.7852325439453	-1509.735717773438	31.86075210571289	-290.2740173339844	
459	4.58	-1465.050659179688	1128.194702148438	-305.3922729492188	-1453.24267578125	1128.801391601562	-440.4143676757812	-1465.368408203125	1162.994384765625	-377.0914611816406	-1243.1240234375	1359.884765625	-361.1495971679688	-1499.668090820312	1312.9443359375	-384.4634704589844	-1456.17578125	1605.019409179688	-398.813720703125	-1277.142822265625	1495.17236328125	-371.0642395019531	-1520.484008789062	1423.707641601562	-312.6664123535156	-1455.473266601562	1584.156494140625	-500.6778259277344	-1362.930908203125	1568.59228515625	-559.9819946289062	-1378.190185546875	1436.570556640625	-630.512939453125	-1363.152954101562	1217.678833007812	-651.9664916992188	-1430.70068359375	1203.61083984375	-597.2528076171875	-1256.755004882812	964.5092163085938	-609.3766479492188	-1336.75927734375	935.646484375	-636.6719970703125	-1344.5595703125	1102.361206054688	-656.3500366210938	-1237.900024414062	771.6982421875	-588.2283325195312	-1303.955322265625	862.0409545898438	-638.4952392578125	-1237.216064453125	876.0264892578125	-620.8223266601562	-1418.356201171875	1589.201904296875	-213.0526580810547	-1443.20849609375	1518.690673828125	-149.2454681396484	-1467.518920898438	1225.934326171875	-121.2365112304688	-1463.22119140625	1222.264892578125	-218.4956970214844	-1328.171997070312	981.2191772460938	-108.1694488525391	-1407.1455078125	965.5174560546875	-87.38494873046875	-1448.57177734375	1152.56591796875	-101.0166397094727	-1307.274169921875	783.1919555664062	-112.7991714477539	-1302.078735351562	872.498046875	-94.23981475830078	-1373.6943359375	866.4805297851562	-73.34529113769531	-1417.373657226562	1780.620361328125	-317.1048889160156	-1247.166015625	1837.344848632812	-445.6391296386719	-1252.3125	1846.996948242188	-316.1034240722656	-1419.205932617188	1774.934692382812	-452.7002563476562	-1354.601928710938	1037.66552734375	-539.4369506835938	-1348.556396484375	1033.070678710938	-173.7646942138672	-1262.930053710938	1104.201049804688	-225.0707244873047	-1249.31787109375	1099.942504882812	-490.8101196289062	-1337.341552734375	533.6611938476562	-504.0545349121094	-1355.37060546875	680.4528198242188	-532.9210205078125	-1474.98779296875	37.30350494384766	-496.3775024414062	-1448.378784179688	289.8895874023438	-530.6768188476562	-1244.453979492188	38.44897079467773	-438.018310546875	-1325.562744140625	41.79701614379883	-403.8689270019531	-1348.585571289062	32.5889892578125	-522.5715942382812	-1544.227294921875	39.29524612426758	-434.4208679199219	-1338.511352539062	538.545654296875	-213.6886901855469	-1326.048461914062	817.7720947265625	-181.2429962158203	-1458.690673828125	29.75612449645996	-233.4254150390625	-1366.4736328125	403.375244140625	-202.1839447021484	-1223.820556640625	48.02371597290039	-255.8539428710938	-1276.51171875	30.8432731628418	-302.7827758789062	-1327.980346679688	45.02432250976562	-195.7688903808594	-1509.695678710938	31.88677597045898	-290.2941589355469	
